<?xml version="1.0" encoding="utf-8"?>
<!-- Generator: Adobe Illustrator 16.0.4, SVG Export Plug-In . SVG Version: 6.00 Build 0)  -->
<!DOCTYPE svg PUBLIC "-//W3C//DTD SVG 1.1//EN" "http://www.w3.org/Graphics/SVG/1.1/DTD/svg11.dtd">
<svg version="1.1" id="Layer_1" xmlns="http://www.w3.org/2000/svg" xmlns:xlink="http://www.w3.org/1999/xlink" x="0px" y="0px"
	 width="383.424px" height="437.679px" fill="#A30B37" viewBox="0 0 383.424 437.679" enable-background="new 0 0 383.424 437.679"
	 xml:space="preserve">
<path fill-rule="evenodd" clip-rule="evenodd" d="M383.424,247.794c-2.79,45.579-12.006,85.93-33.501,122.834
	c-8.38,14.389-18.342,27.657-30.765,38.829c-16.287,14.648-35.132,24.166-57.062,26.993c-9.604,1.238-19.315,2.255-28.718-0.671
	c-6.391-1.988-12.624-4.698-18.616-7.705c-15.649-7.854-31.108-7.936-46.613,0.187c-7.539,3.95-15.262,7.491-23.771,8.667
	c-8.634,1.192-17.285,0.65-25.858-0.77c-28.974-4.797-51.554-20.142-69.617-42.682c-22.589-28.189-35.879-60.581-42.999-95.767
	c-3.722-18.393-6.445-36.854-5.813-55.685c0.941-28.077,6.203-55.158,19.029-80.396c9.124-17.952,21.417-33.092,39.484-42.863
	c14.25-7.707,29.432-10.703,45.53-8.996c29.927,3.173,58.192,11.886,84.888,25.71c1.875,0.971,3.224,0.88,5.019-0.064
	c22.78-11.983,46.987-19.771,72.327-23.985c6.865-1.142,13.87-1.742,20.83-1.942c17.562-0.504,33.159,5.315,47.146,15.695
	c15.429,11.45,25.572,26.914,33.218,44.215c6.282,14.22,10.635,29.069,12.725,44.436
	C381.965,226.177,382.612,238.661,383.424,247.794z"/>
<path fill-rule="evenodd" clip-rule="evenodd" d="M272.405,0.758c1.444,10.416,1.326,20.425-0.4,30.417
	c-1.82,10.529-4.908,20.649-9.563,30.287c-6.681,13.83-18.141,21.904-32.144,27.065c-16.521,6.088-33.494,8.216-50.985,6.278
	c-0.154-0.017-0.298-0.117-1.023-0.416c-0.082-6.462-0.733-13.221-0.108-19.859c0.792-8.396,2.026-16.848,4.12-25.007
	c5.895-22.977,20.667-37.512,43.434-44.14c10.499-3.057,21.084-5.414,32.06-5.382C262.606,0.014,267.418,0.485,272.405,0.758z"/>
</svg>
